<svg width="128" height="80" viewBox="0 0 128 80" fill="none" xmlns="http://www.w3.org/2000/svg">
<path d="M63.7083 64C70.9479 64 77.1016 61.6667 82.1693 57C87.237 52.3333 89.7708 46.6667 89.7708 40C89.7708 33.3333 87.237 27.6667 82.1693 23C77.1016 18.3333 70.9479 16 63.7083 16C56.4688 16 50.3151 18.3333 45.2474 23C40.1797 27.6667 37.6458 33.3333 37.6458 40C37.6458 46.6667 40.1797 52.3333 45.2474 57C50.3151 61.6667 56.4688 64 63.7083 64ZM63.7083 54.4C59.3646 54.4 55.6724 53 52.6318 50.2C49.5911 47.4 48.0708 44 48.0708 40C48.0708 36 49.5911 32.6 52.6318 29.8C55.6724 27 59.3646 25.6 63.7083 25.6C68.0521 25.6 71.7443 27 74.7849 29.8C77.8255 32.6 79.3458 36 79.3458 40C79.3458 44 77.8255 47.4 74.7849 50.2C71.7443 53 68.0521 54.4 63.7083 54.4ZM63.7083 80C49.6153 80 36.7771 76.3778 25.1937 69.1333C13.6104 61.8889 5.2125 52.1778 0 40C5.2125 27.8222 13.6104 18.1111 25.1937 10.8667C36.7771 3.62222 49.6153 0 63.7083 0C77.8014 0 90.6396 3.62222 102.223 10.8667C113.806 18.1111 122.204 27.8222 127.417 40C122.204 52.1778 113.806 61.8889 102.223 69.1333C90.6396 76.3778 77.8014 80 63.7083 80ZM63.7083 69.3333C74.616 69.3333 84.6307 66.6889 93.7526 61.4C102.874 56.1111 109.849 48.9778 114.675 40C109.849 31.0222 102.874 23.8889 93.7526 18.6C84.6307 13.3111 74.616 10.6667 63.7083 10.6667C52.8007 10.6667 42.7859 13.3111 33.6641 18.6C24.5422 23.8889 17.5681 31.0222 12.7417 40C17.5681 48.9778 24.5422 56.1111 33.6641 61.4C42.7859 66.6889 52.8007 69.3333 63.7083 69.3333Z" fill="white"/>
</svg>
