<svg width="285" height="263" viewBox="0 0 285 263" fill="none" xmlns="http://www.w3.org/2000/svg">
<rect x="214" y="193" width="71" height="70" fill="#D9D9D9"/>
<rect x="150" y="163" width="35" height="32" fill="#D9D9D9"/>
<rect x="93" y="199" width="35" height="35" fill="#D9D9D9"/>
<rect x="240" y="129" width="45" height="46" fill="#D9D9D9"/>
<rect x="140" y="217" width="45" height="46" fill="#D9D9D9"/>
<rect x="196" y="134" width="35" height="35" fill="#D9D9D9"/>
<rect x="173" y="70" width="17" height="16" fill="#D9D9D9"/>
<rect x="263" y="91" width="17" height="16" fill="#D9D9D9"/>
<rect x="214" width="17" height="16" fill="#D9D9D9"/>
<rect x="66" y="155" width="17" height="16" fill="#D9D9D9"/>
<rect y="236" width="17" height="16" fill="#D9D9D9"/>
<rect x="192" y="195" width="17" height="16" fill="#D9D9D9"/>
<rect x="105" y="242" width="17" height="16" fill="#D9D9D9"/>
<rect x="209" y="91" width="28" height="27" fill="#D9D9D9"/>
<rect x="250" y="38" width="28" height="27" fill="#D9D9D9"/>
<rect x="55" y="236" width="28" height="27" fill="#D9D9D9"/>
<rect x="106" y="152" width="28" height="27" fill="#D9D9D9"/>
<rect x="159" y="107" width="28" height="27" fill="#D9D9D9"/>
</svg>
